<svg width="865" height="865" viewBox="0 0 865 865" fill="none" xmlns="http://www.w3.org/2000/svg">
<rect width="865" height="865" fill="black"/>
<path d="M183 269.814H228.643V596.186H183V269.814Z" fill="white"/>
<path d="M411.589 345.871C411.589 319.556 397.656 306.398 369.789 306.398C341.923 306.398 327.989 319.556 327.989 345.871V520.129C327.989 546.765 341.923 560.083 369.789 560.083C397.656 560.083 411.589 546.765 411.589 520.129V345.871ZM282.826 344.427C282.826 320.358 290.033 301.103 304.447 286.662C319.181 272.221 340.801 265 369.309 265C398.136 265 419.917 272.381 434.651 287.143C449.385 301.585 456.752 320.679 456.752 344.427V522.054C456.752 545.802 449.385 564.897 434.651 579.338C419.917 593.779 398.296 601 369.789 601C341.282 601 319.661 593.779 304.927 579.338C290.193 564.897 282.826 545.802 282.826 522.054V344.427Z" fill="white"/>
<path d="M636.837 269.814H682V522.054C682 545.802 674.633 564.897 659.899 579.338C645.485 593.779 624.025 601 595.518 601C567.011 601 545.39 593.779 530.656 579.338C516.242 564.897 509.035 545.802 509.035 522.054V269.814H554.198V520.129C554.198 546.765 567.971 560.083 595.518 560.083C623.064 560.083 636.837 546.765 636.837 520.129V269.814Z" fill="white"/>
</svg>
