<svg width="96" height="96" viewBox="247 247 371 371" fill="none" xmlns="http://www.w3.org/2000/svg">
<path d="M267 324.195H297.277V540.805H267V324.195Z" fill="white"/>
<path d="M418.629 374.673C418.629 357.208 409.387 348.476 390.902 348.476C372.418 348.476 363.175 357.208 363.175 374.673V490.327C363.175 508.005 372.418 516.844 390.902 516.844C409.387 516.844 418.629 508.005 418.629 490.327V374.673ZM333.217 373.715C333.217 357.741 337.998 344.961 347.559 335.377C357.332 325.792 371.674 321 390.583 321C409.705 321 424.153 325.899 433.927 335.696C443.7 345.281 448.587 357.954 448.587 373.715V491.605C448.587 507.366 443.7 520.039 433.927 529.623C424.153 539.208 409.812 544 390.902 544C371.993 544 357.651 539.208 347.878 529.623C338.104 520.039 333.217 507.366 333.217 491.605V373.715Z" fill="white"/>
<path d="M568.042 324.195H598V491.605C598 507.366 593.113 520.039 583.34 529.623C573.779 539.208 559.544 544 540.634 544C521.724 544 507.383 539.208 497.609 529.623C488.048 520.039 483.268 507.366 483.268 491.605V324.195H513.226V490.327C513.226 508.005 522.362 516.844 540.634 516.844C558.906 516.844 568.042 508.005 568.042 490.327V324.195Z" fill="white"/>
</svg>
